<?xml version="1.0" standalone="no"?><!DOCTYPE svg PUBLIC "-//W3C//DTD SVG 1.1//EN" "http://www.w3.org/Graphics/SVG/1.1/DTD/svg11.dtd"><svg t="1587730275556" class="icon" viewBox="0 0 1024 1024" version="1.1" xmlns="http://www.w3.org/2000/svg" p-id="4512" xmlns:xlink="http://www.w3.org/1999/xlink" width="200" height="200"><defs><style type="text/css"></style></defs><path d="M862.59712 947.2H166.52288A84.70016 84.70016 0 0 1 81.92 862.59712V166.52288A84.70016 84.70016 0 0 1 166.52288 81.92h696.07424A84.70016 84.70016 0 0 1 947.2 166.52288v696.07424A84.70016 84.70016 0 0 1 862.59712 947.2zM166.52288 140.47232a26.07616 26.07616 0 0 0-26.05056 26.05056v696.07424a26.07616 26.07616 0 0 0 26.05056 26.05056h696.07424a26.07616 26.07616 0 0 0 26.05056-26.05056V166.52288a26.07616 26.07616 0 0 0-26.05056-26.05056H166.52288z" fill="#2966C1" p-id="4513"></path><path d="M729.0112 485.08416h-184.99072V300.09344a29.4656 29.4656 0 1 0-58.93632 0v184.99072H300.09344a29.4656 29.4656 0 1 0 0 58.93632h184.99072v184.99072a29.4656 29.4656 0 1 0 58.93632 0v-184.99072h184.99072a29.4656 29.4656 0 1 0 0-58.93632z" fill="#FD9A16" p-id="4514"></path></svg>