<?xml version="1.0" standalone="no"?><!DOCTYPE svg PUBLIC "-//W3C//DTD SVG 1.1//EN" "http://www.w3.org/Graphics/SVG/1.1/DTD/svg11.dtd"><svg t="1587730263593" class="icon" viewBox="0 0 1024 1024" version="1.1" xmlns="http://www.w3.org/2000/svg" p-id="3767" xmlns:xlink="http://www.w3.org/1999/xlink" width="200" height="200"><defs><style type="text/css"></style></defs><path d="M414.72 723.2c-11.733333 11.733333-27.733333 18.56-44.16 18.773333l-164.266667 2.56c-18.986667-1.706667-33.92-16.64-35.626666-35.626666l2.56-164.266667c0.213333-16.64 7.04-32.426667 18.773333-44.16L498.56 193.92l222.72 222.72L414.72 723.2z" fill="#2953FF" p-id="3768"></path><path d="M749.226667 388.693333L526.293333 165.973333l41.813334-41.813333a85.504 85.504 0 0 1 120.746666 0l102.186667 102.186667a85.504 85.504 0 0 1 0 120.746666l-41.813333 41.6z" fill="#FCCA1E" p-id="3769"></path><path d="M789.333333 924.8H234.666667c-35.413333 0-64-28.586667-64-64s28.586667-64 64-64h554.666666c35.413333 0 64 28.586667 64 64s-28.586667 64-64 64z" fill="#93A8FF" p-id="3770"></path></svg>