<?xml version="1.0" standalone="no"?><!DOCTYPE svg PUBLIC "-//W3C//DTD SVG 1.1//EN" "http://www.w3.org/Graphics/SVG/1.1/DTD/svg11.dtd"><svg t="1588043801084" class="icon" viewBox="0 0 1024 1024" version="1.1" xmlns="http://www.w3.org/2000/svg" p-id="4191" xmlns:xlink="http://www.w3.org/1999/xlink" width="200" height="200"><defs><style type="text/css"></style></defs><path d="M444.416 198.656c65.7408 0 127.3856 25.6 173.8752 71.8848 46.4896 46.4896 71.8848 108.1344 71.8848 173.8752s-25.6 127.3856-71.8848 173.8752S510.1568 690.176 444.416 690.176c-65.7408 0-127.3856-25.6-173.8752-71.8848C224.256 571.8016 198.656 510.1568 198.656 444.416s25.6-127.3856 71.8848-173.8752S378.6752 198.656 444.416 198.656m0-45.056c-74.3424 0-148.8896 28.4672-205.6192 85.1968-113.664 113.664-113.664 297.7792 0 411.2384C295.5264 706.7648 370.0736 735.232 444.416 735.232s148.8896-28.4672 205.6192-85.1968c113.664-113.664 113.664-297.7792 0-411.2384C593.3056 182.0672 518.7584 153.6 444.416 153.6z" fill="#ffffff" p-id="4192"></path><path d="M267.0592 439.5008c-1.6384 0-3.2768-0.2048-4.9152-0.6144-12.0832-2.6624-19.8656-14.7456-16.9984-26.8288 9.216-40.7552 29.696-78.0288 59.392-107.7248 19.8656-19.8656 42.8032-35.4304 68.4032-46.4896 11.4688-4.9152 24.7808 0.2048 29.696 11.6736s-0.2048 24.7808-11.6736 29.696c-20.2752 8.8064-38.5024 21.2992-54.272 37.0688-23.552 23.552-39.936 53.248-47.3088 85.8112-2.6624 10.4448-12.0832 17.408-22.3232 17.408z" fill="#ffffff" p-id="4193"></path><path d="M822.0672 854.016L620.544 652.288c-8.8064-8.8064-8.8064-23.1424 0-31.9488 8.8064-8.8064 23.1424-8.8064 31.9488 0l201.728 201.728c8.8064 8.8064 8.8064 23.1424 0 31.9488-9.0112 8.8064-23.3472 8.8064-32.1536 0z" fill="#ffffff" p-id="4194"></path></svg>